<?xml version="1.0" encoding="UTF-8" standalone="no"?>
<!DOCTYPE svg PUBLIC "-//W3C//DTD SVG 1.1//EN"
 "http://www.w3.org/Graphics/SVG/1.1/DTD/svg11.dtd">
<!-- Generated by graphviz version 14.1.1 (20251213.1925)
 -->
<!-- Title: G Pages: 1 -->
<svg width="1050pt" height="333pt"
 viewBox="0.00 0.00 1050.00 333.00" xmlns="http://www.w3.org/2000/svg" xmlns:xlink="http://www.w3.org/1999/xlink">
<g id="graph0" class="graph" transform="scale(1 1) rotate(0) translate(4 329)">
<title>G</title>
<polygon fill="white" stroke="none" points="-4,4 -4,-329 1045.75,-329 1045.75,4 -4,4"/>
<!-- _ -->
<g id="node1" class="node">
<title>_</title>
<polygon fill="none" stroke="black" points="66.5,-324 12.5,-324 12.5,-288 66.5,-288 66.5,-324"/>
<text xml:space="preserve" text-anchor="middle" x="39.5" y="-301.32" font-family="Times,serif" font-size="14.00">&quot;&quot;,&quot;&quot;</text>
</g>
<!-- c_ -->
<g id="node2" class="node">
<title>c_</title>
<polygon fill="none" stroke="black" points="67,-252 12,-252 12,-216 67,-216 67,-252"/>
<text xml:space="preserve" text-anchor="middle" x="39.5" y="-229.32" font-family="Times,serif" font-size="14.00">&quot;c&quot;,&quot;&quot;</text>
</g>
<!-- _&#45;&gt;c_ -->
<g id="edge4" class="edge">
<title>_&#45;&gt;c_</title>
<path fill="none" stroke="black" d="M39.5,-287.59C39.5,-280.28 39.5,-271.69 39.5,-263.56"/>
<polygon fill="black" stroke="black" points="43,-263.68 39.5,-253.68 36,-263.68 43,-263.68"/>
<text xml:space="preserve" text-anchor="middle" x="27.88" y="-265.32" font-family="Times,serif" font-size="14.00">del(&#39;c&#39;)</text>
</g>
<!-- _c -->
<g id="node6" class="node">
<title>_c</title>
<polygon fill="none" stroke="black" points="245,-325 190,-325 190,-289 245,-289 245,-325"/>
<text xml:space="preserve" text-anchor="middle" x="217.5" y="-302.32" font-family="Times,serif" font-size="14.00">&quot;&quot;,&quot;c&quot;</text>
</g>
<!-- _&#45;&gt;_c -->
<g id="edge28" class="edge">
<title>_&#45;&gt;_c</title>
<path fill="none" stroke="black" d="M66.85,-306.15C96.44,-306.32 144.73,-306.59 178.43,-306.78"/>
<polygon fill="black" stroke="black" points="178.15,-310.28 188.17,-306.84 178.19,-303.28 178.15,-310.28"/>
<text xml:space="preserve" text-anchor="middle" x="126.62" y="-310.6" font-family="Times,serif" font-size="14.00">ins(&#39;c&#39;)</text>
</g>
<!-- c_c -->
<g id="node7" class="node">
<title>c_c</title>
<polygon fill="none" stroke="black" points="248.75,-253 186.25,-253 186.25,-217 248.75,-217 248.75,-253"/>
<text xml:space="preserve" text-anchor="middle" x="217.5" y="-230.32" font-family="Times,serif" font-size="14.00">&quot;c&quot;,&quot;c&quot;</text>
</g>
<!-- _&#45;&gt;c_c -->
<g id="edge1" class="edge">
<title>_&#45;&gt;c_c</title>
<path fill="none" stroke="blue" d="M66.85,-295.37C95.58,-283.78 141.92,-265.09 175.43,-251.57"/>
<polygon fill="blue" stroke="blue" points="176.45,-254.93 184.42,-247.94 173.83,-248.44 176.45,-254.93"/>
<text xml:space="preserve" text-anchor="middle" x="126.62" y="-286.98" font-family="Times,serif" font-size="14.00">keep(&#39;c&#39;)</text>
</g>
<!-- ca_ -->
<g id="node3" class="node">
<title>ca_</title>
<polygon fill="none" stroke="black" points="71.12,-180 7.88,-180 7.88,-144 71.12,-144 71.12,-180"/>
<text xml:space="preserve" text-anchor="middle" x="39.5" y="-157.32" font-family="Times,serif" font-size="14.00">&quot;ca&quot;,&quot;&quot;</text>
</g>
<!-- c_&#45;&gt;ca_ -->
<g id="edge10" class="edge">
<title>c_&#45;&gt;ca_</title>
<path fill="none" stroke="black" d="M39.5,-215.59C39.5,-208.28 39.5,-199.69 39.5,-191.56"/>
<polygon fill="black" stroke="black" points="43,-191.68 39.5,-181.68 36,-191.68 43,-191.68"/>
<text xml:space="preserve" text-anchor="middle" x="27.88" y="-193.32" font-family="Times,serif" font-size="14.00">del(&#39;a&#39;)</text>
</g>
<!-- c_&#45;&gt;c_c -->
<g id="edge29" class="edge">
<title>c_&#45;&gt;c_c</title>
<path fill="none" stroke="black" d="M67.48,-230.98C76.82,-230.07 87.36,-229.2 97,-228.75 123.31,-227.53 129.95,-227.39 156.25,-228.75 162.29,-229.06 168.65,-229.55 174.9,-230.12"/>
<polygon fill="black" stroke="black" points="174.09,-233.56 184.39,-231.06 174.78,-226.59 174.09,-233.56"/>
<text xml:space="preserve" text-anchor="middle" x="126.62" y="-232.7" font-family="Times,serif" font-size="14.00">ins(&#39;c&#39;)</text>
</g>
<!-- car_ -->
<g id="node4" class="node">
<title>car_</title>
<polygon fill="none" stroke="black" points="74.5,-108 4.5,-108 4.5,-72 74.5,-72 74.5,-108"/>
<text xml:space="preserve" text-anchor="middle" x="39.5" y="-85.33" font-family="Times,serif" font-size="14.00">&quot;car&quot;,&quot;&quot;</text>
</g>
<!-- ca_&#45;&gt;car_ -->
<g id="edge16" class="edge">
<title>ca_&#45;&gt;car_</title>
<path fill="none" stroke="black" d="M39.5,-143.59C39.5,-136.28 39.5,-127.69 39.5,-119.56"/>
<polygon fill="black" stroke="black" points="43,-119.68 39.5,-109.68 36,-119.68 43,-119.68"/>
<text xml:space="preserve" text-anchor="middle" x="27.88" y="-121.33" font-family="Times,serif" font-size="14.00">del(&#39;r&#39;)</text>
</g>
<!-- ca_c -->
<g id="node8" class="node">
<title>ca_c</title>
<polygon fill="none" stroke="black" points="252.88,-180 182.12,-180 182.12,-144 252.88,-144 252.88,-180"/>
<text xml:space="preserve" text-anchor="middle" x="217.5" y="-157.32" font-family="Times,serif" font-size="14.00">&quot;ca&quot;,&quot;c&quot;</text>
</g>
<!-- ca_&#45;&gt;ca_c -->
<g id="edge30" class="edge">
<title>ca_&#45;&gt;ca_c</title>
<path fill="none" stroke="black" d="M71.56,-162C98.95,-162 139.23,-162 170.39,-162"/>
<polygon fill="black" stroke="black" points="170.32,-165.5 180.32,-162 170.32,-158.5 170.32,-165.5"/>
<text xml:space="preserve" text-anchor="middle" x="126.62" y="-165.95" font-family="Times,serif" font-size="14.00">ins(&#39;c&#39;)</text>
</g>
<!-- carp_ -->
<g id="node5" class="node">
<title>carp_</title>
<polygon fill="none" stroke="black" points="79,-36 0,-36 0,0 79,0 79,-36"/>
<text xml:space="preserve" text-anchor="middle" x="39.5" y="-13.32" font-family="Times,serif" font-size="14.00">&quot;carp&quot;,&quot;&quot;</text>
</g>
<!-- car_&#45;&gt;carp_ -->
<g id="edge22" class="edge">
<title>car_&#45;&gt;carp_</title>
<path fill="none" stroke="black" d="M39.5,-71.59C39.5,-64.28 39.5,-55.69 39.5,-47.56"/>
<polygon fill="black" stroke="black" points="43,-47.68 39.5,-37.68 36,-47.68 43,-47.68"/>
<text xml:space="preserve" text-anchor="middle" x="27.88" y="-49.33" font-family="Times,serif" font-size="14.00">del(&#39;p&#39;)</text>
</g>
<!-- car_c -->
<g id="node9" class="node">
<title>car_c</title>
<polygon fill="none" stroke="black" points="256.25,-108 178.75,-108 178.75,-72 256.25,-72 256.25,-108"/>
<text xml:space="preserve" text-anchor="middle" x="217.5" y="-85.33" font-family="Times,serif" font-size="14.00">&quot;car&quot;,&quot;c&quot;</text>
</g>
<!-- car_&#45;&gt;car_c -->
<g id="edge31" class="edge">
<title>car_&#45;&gt;car_c</title>
<path fill="none" stroke="black" d="M74.85,-90C101.08,-90 137.59,-90 166.98,-90"/>
<polygon fill="black" stroke="black" points="166.75,-93.5 176.75,-90 166.75,-86.5 166.75,-93.5"/>
<text xml:space="preserve" text-anchor="middle" x="126.62" y="-93.95" font-family="Times,serif" font-size="14.00">ins(&#39;c&#39;)</text>
</g>
<!-- carp_c -->
<g id="node10" class="node">
<title>carp_c</title>
<polygon fill="none" stroke="black" points="260.75,-36 174.25,-36 174.25,0 260.75,0 260.75,-36"/>
<text xml:space="preserve" text-anchor="middle" x="217.5" y="-13.32" font-family="Times,serif" font-size="14.00">&quot;carp&quot;,&quot;c&quot;</text>
</g>
<!-- carp_&#45;&gt;carp_c -->
<g id="edge32" class="edge">
<title>carp_&#45;&gt;carp_c</title>
<path fill="none" stroke="black" d="M79.12,-18C103.65,-18 135.74,-18 162.74,-18"/>
<polygon fill="black" stroke="black" points="162.45,-21.5 172.45,-18 162.45,-14.5 162.45,-21.5"/>
<text xml:space="preserve" text-anchor="middle" x="126.62" y="-21.95" font-family="Times,serif" font-size="14.00">ins(&#39;c&#39;)</text>
</g>
<!-- _c&#45;&gt;c_c -->
<g id="edge5" class="edge">
<title>_c&#45;&gt;c_c</title>
<path fill="none" stroke="black" d="M217.5,-288.59C217.5,-281.28 217.5,-272.69 217.5,-264.56"/>
<polygon fill="black" stroke="black" points="221,-264.68 217.5,-254.68 214,-264.68 221,-264.68"/>
<text xml:space="preserve" text-anchor="middle" x="205.88" y="-266.32" font-family="Times,serif" font-size="14.00">del(&#39;c&#39;)</text>
</g>
<!-- _ca -->
<g id="node11" class="node">
<title>_ca</title>
<polygon fill="none" stroke="black" points="435.75,-325 372.5,-325 372.5,-289 435.75,-289 435.75,-325"/>
<text xml:space="preserve" text-anchor="middle" x="404.12" y="-302.32" font-family="Times,serif" font-size="14.00">&quot;&quot;,&quot;ca&quot;</text>
</g>
<!-- _c&#45;&gt;_ca -->
<g id="edge33" class="edge">
<title>_c&#45;&gt;_ca</title>
<path fill="none" stroke="black" d="M245.35,-307C275.63,-307 325.27,-307 360.79,-307"/>
<polygon fill="black" stroke="black" points="360.73,-310.5 370.73,-307 360.73,-303.5 360.73,-310.5"/>
<text xml:space="preserve" text-anchor="middle" x="308.75" y="-310.95" font-family="Times,serif" font-size="14.00">ins(&#39;a&#39;)</text>
</g>
<!-- c_c&#45;&gt;ca_c -->
<g id="edge11" class="edge">
<title>c_c&#45;&gt;ca_c</title>
<path fill="none" stroke="black" d="M217.5,-216.58C217.5,-209.06 217.5,-200.17 217.5,-191.77"/>
<polygon fill="black" stroke="black" points="221,-191.93 217.5,-181.93 214,-191.93 221,-191.93"/>
<text xml:space="preserve" text-anchor="middle" x="205.88" y="-193.82" font-family="Times,serif" font-size="14.00">del(&#39;a&#39;)</text>
</g>
<!-- c_ca -->
<g id="node12" class="node">
<title>c_ca</title>
<polygon fill="none" stroke="black" points="439.5,-253 368.75,-253 368.75,-217 439.5,-217 439.5,-253"/>
<text xml:space="preserve" text-anchor="middle" x="404.12" y="-230.32" font-family="Times,serif" font-size="14.00">&quot;c&quot;,&quot;ca&quot;</text>
</g>
<!-- c_c&#45;&gt;c_ca -->
<g id="edge34" class="edge">
<title>c_c&#45;&gt;c_ca</title>
<path fill="none" stroke="black" d="M248.99,-235C278.4,-235 323.3,-235 357.07,-235"/>
<polygon fill="black" stroke="black" points="356.99,-238.5 366.99,-235 356.99,-231.5 356.99,-238.5"/>
<text xml:space="preserve" text-anchor="middle" x="308.75" y="-238.95" font-family="Times,serif" font-size="14.00">ins(&#39;a&#39;)</text>
</g>
<!-- ca_ca -->
<g id="node13" class="node">
<title>ca_ca</title>
<polygon fill="none" stroke="black" points="443.62,-180 364.62,-180 364.62,-144 443.62,-144 443.62,-180"/>
<text xml:space="preserve" text-anchor="middle" x="404.12" y="-157.32" font-family="Times,serif" font-size="14.00">&quot;ca&quot;,&quot;ca&quot;</text>
</g>
<!-- c_c&#45;&gt;ca_ca -->
<g id="edge2" class="edge">
<title>c_c&#45;&gt;ca_ca</title>
<path fill="none" stroke="blue" d="M248.99,-222.95C277.45,-211.69 320.43,-194.7 353.78,-181.51"/>
<polygon fill="blue" stroke="blue" points="354.82,-184.86 362.83,-177.93 352.24,-178.35 354.82,-184.86"/>
<text xml:space="preserve" text-anchor="middle" x="308.75" y="-213.25" font-family="Times,serif" font-size="14.00">keep(&#39;a&#39;)</text>
</g>
<!-- ca_c&#45;&gt;car_c -->
<g id="edge17" class="edge">
<title>ca_c&#45;&gt;car_c</title>
<path fill="none" stroke="black" d="M217.5,-143.59C217.5,-136.28 217.5,-127.69 217.5,-119.56"/>
<polygon fill="black" stroke="black" points="221,-119.68 217.5,-109.68 214,-119.68 221,-119.68"/>
<text xml:space="preserve" text-anchor="middle" x="205.88" y="-121.33" font-family="Times,serif" font-size="14.00">del(&#39;r&#39;)</text>
</g>
<!-- ca_c&#45;&gt;ca_ca -->
<g id="edge35" class="edge">
<title>ca_c&#45;&gt;ca_ca</title>
<path fill="none" stroke="black" d="M253.22,-160.48C261.58,-160.18 270.48,-159.9 278.75,-159.75 305.41,-159.25 312.09,-159.28 338.75,-159.75 343.4,-159.83 348.25,-159.95 353.09,-160.08"/>
<polygon fill="black" stroke="black" points="352.71,-163.57 362.81,-160.38 352.92,-156.57 352.71,-163.57"/>
<text xml:space="preserve" text-anchor="middle" x="308.75" y="-163.7" font-family="Times,serif" font-size="14.00">ins(&#39;a&#39;)</text>
</g>
<!-- car_c&#45;&gt;carp_c -->
<g id="edge23" class="edge">
<title>car_c&#45;&gt;carp_c</title>
<path fill="none" stroke="black" d="M217.5,-71.59C217.5,-64.28 217.5,-55.69 217.5,-47.56"/>
<polygon fill="black" stroke="black" points="221,-47.68 217.5,-37.68 214,-47.68 221,-47.68"/>
<text xml:space="preserve" text-anchor="middle" x="205.88" y="-49.33" font-family="Times,serif" font-size="14.00">del(&#39;p&#39;)</text>
</g>
<!-- car_ca -->
<g id="node14" class="node">
<title>car_ca</title>
<polygon fill="none" stroke="black" points="447,-108 361.25,-108 361.25,-72 447,-72 447,-108"/>
<text xml:space="preserve" text-anchor="middle" x="404.12" y="-85.33" font-family="Times,serif" font-size="14.00">&quot;car&quot;,&quot;ca&quot;</text>
</g>
<!-- car_c&#45;&gt;car_ca -->
<g id="edge36" class="edge">
<title>car_c&#45;&gt;car_ca</title>
<path fill="none" stroke="black" d="M256.31,-90C283.13,-90 319.52,-90 349.36,-90"/>
<polygon fill="black" stroke="black" points="349.34,-93.5 359.34,-90 349.34,-86.5 349.34,-93.5"/>
<text xml:space="preserve" text-anchor="middle" x="308.75" y="-93.95" font-family="Times,serif" font-size="14.00">ins(&#39;a&#39;)</text>
</g>
<!-- carp_ca -->
<g id="node15" class="node">
<title>carp_ca</title>
<polygon fill="none" stroke="black" points="451.5,-36 356.75,-36 356.75,0 451.5,0 451.5,-36"/>
<text xml:space="preserve" text-anchor="middle" x="404.12" y="-13.32" font-family="Times,serif" font-size="14.00">&quot;carp&quot;,&quot;ca&quot;</text>
</g>
<!-- carp_c&#45;&gt;carp_ca -->
<g id="edge37" class="edge">
<title>carp_c&#45;&gt;carp_ca</title>
<path fill="none" stroke="black" d="M260.86,-18C285.82,-18 317.76,-18 345.05,-18"/>
<polygon fill="black" stroke="black" points="344.91,-21.5 354.91,-18 344.91,-14.5 344.91,-21.5"/>
<text xml:space="preserve" text-anchor="middle" x="308.75" y="-21.95" font-family="Times,serif" font-size="14.00">ins(&#39;a&#39;)</text>
</g>
<!-- _ca&#45;&gt;c_ca -->
<g id="edge6" class="edge">
<title>_ca&#45;&gt;c_ca</title>
<path fill="none" stroke="black" d="M404.12,-288.59C404.12,-281.28 404.12,-272.69 404.12,-264.56"/>
<polygon fill="black" stroke="black" points="407.63,-264.68 404.13,-254.68 400.63,-264.68 407.63,-264.68"/>
<text xml:space="preserve" text-anchor="middle" x="392.5" y="-266.32" font-family="Times,serif" font-size="14.00">del(&#39;c&#39;)</text>
</g>
<!-- _car -->
<g id="node16" class="node">
<title>_car</title>
<polygon fill="none" stroke="black" points="631.75,-325 561.75,-325 561.75,-289 631.75,-289 631.75,-325"/>
<text xml:space="preserve" text-anchor="middle" x="596.75" y="-302.32" font-family="Times,serif" font-size="14.00">&quot;&quot;,&quot;car&quot;</text>
</g>
<!-- _ca&#45;&gt;_car -->
<g id="edge38" class="edge">
<title>_ca&#45;&gt;_car</title>
<path fill="none" stroke="black" d="M436.18,-307C467.08,-307 514.84,-307 550.07,-307"/>
<polygon fill="black" stroke="black" points="549.98,-310.5 559.98,-307 549.98,-303.5 549.98,-310.5"/>
<text xml:space="preserve" text-anchor="middle" x="498.75" y="-310.95" font-family="Times,serif" font-size="14.00">ins(&#39;r&#39;)</text>
</g>
<!-- c_ca&#45;&gt;ca_ca -->
<g id="edge12" class="edge">
<title>c_ca&#45;&gt;ca_ca</title>
<path fill="none" stroke="black" d="M404.12,-216.58C404.12,-209.06 404.12,-200.17 404.12,-191.77"/>
<polygon fill="black" stroke="black" points="407.63,-191.93 404.13,-181.93 400.63,-191.93 407.63,-191.93"/>
<text xml:space="preserve" text-anchor="middle" x="392.5" y="-193.82" font-family="Times,serif" font-size="14.00">del(&#39;a&#39;)</text>
</g>
<!-- c_car -->
<g id="node17" class="node">
<title>c_car</title>
<polygon fill="none" stroke="black" points="635.5,-253 558,-253 558,-217 635.5,-217 635.5,-253"/>
<text xml:space="preserve" text-anchor="middle" x="596.75" y="-230.32" font-family="Times,serif" font-size="14.00">&quot;c&quot;,&quot;car&quot;</text>
</g>
<!-- c_ca&#45;&gt;c_car -->
<g id="edge39" class="edge">
<title>c_ca&#45;&gt;c_car</title>
<path fill="none" stroke="black" d="M439.65,-235C469.4,-235 512.71,-235 546.17,-235"/>
<polygon fill="black" stroke="black" points="546.05,-238.5 556.05,-235 546.05,-231.5 546.05,-238.5"/>
<text xml:space="preserve" text-anchor="middle" x="498.75" y="-238.95" font-family="Times,serif" font-size="14.00">ins(&#39;r&#39;)</text>
</g>
<!-- ca_ca&#45;&gt;car_ca -->
<g id="edge18" class="edge">
<title>ca_ca&#45;&gt;car_ca</title>
<path fill="none" stroke="black" d="M404.12,-143.59C404.12,-136.28 404.12,-127.69 404.12,-119.56"/>
<polygon fill="black" stroke="black" points="407.63,-119.68 404.13,-109.68 400.63,-119.68 407.63,-119.68"/>
<text xml:space="preserve" text-anchor="middle" x="392.5" y="-121.33" font-family="Times,serif" font-size="14.00">del(&#39;r&#39;)</text>
</g>
<!-- ca_car -->
<g id="node18" class="node">
<title>ca_car</title>
<polygon fill="none" stroke="black" points="639.62,-181 553.88,-181 553.88,-145 639.62,-145 639.62,-181"/>
<text xml:space="preserve" text-anchor="middle" x="596.75" y="-158.32" font-family="Times,serif" font-size="14.00">&quot;ca&quot;,&quot;car&quot;</text>
</g>
<!-- ca_ca&#45;&gt;ca_car -->
<g id="edge40" class="edge">
<title>ca_ca&#45;&gt;ca_car</title>
<path fill="none" stroke="black" d="M443.7,-162.2C472.09,-162.35 511.04,-162.56 542.41,-162.72"/>
<polygon fill="black" stroke="black" points="542.06,-166.22 552.07,-162.77 542.09,-159.22 542.06,-166.22"/>
<text xml:space="preserve" text-anchor="middle" x="498.75" y="-166.57" font-family="Times,serif" font-size="14.00">ins(&#39;r&#39;)</text>
</g>
<!-- car_car -->
<g id="node19" class="node">
<title>car_car</title>
<polygon fill="none" stroke="black" points="643,-109 550.5,-109 550.5,-73 643,-73 643,-109"/>
<text xml:space="preserve" text-anchor="middle" x="596.75" y="-86.33" font-family="Times,serif" font-size="14.00">&quot;car&quot;,&quot;car&quot;</text>
</g>
<!-- ca_ca&#45;&gt;car_car -->
<g id="edge3" class="edge">
<title>ca_ca&#45;&gt;car_car</title>
<path fill="none" stroke="blue" d="M443.7,-147.63C471.24,-137.37 508.72,-123.42 539.57,-111.92"/>
<polygon fill="blue" stroke="blue" points="540.62,-115.27 548.77,-108.5 538.17,-108.71 540.62,-115.27"/>
<text xml:space="preserve" text-anchor="middle" x="498.75" y="-140.96" font-family="Times,serif" font-size="14.00">keep(&#39;r&#39;)</text>
</g>
<!-- car_ca&#45;&gt;carp_ca -->
<g id="edge24" class="edge">
<title>car_ca&#45;&gt;carp_ca</title>
<path fill="none" stroke="black" d="M404.12,-71.59C404.12,-64.28 404.12,-55.69 404.12,-47.56"/>
<polygon fill="black" stroke="black" points="407.63,-47.68 404.13,-37.68 400.63,-47.68 407.63,-47.68"/>
<text xml:space="preserve" text-anchor="middle" x="392.5" y="-49.33" font-family="Times,serif" font-size="14.00">del(&#39;p&#39;)</text>
</g>
<!-- car_ca&#45;&gt;car_car -->
<g id="edge41" class="edge">
<title>car_ca&#45;&gt;car_car</title>
<path fill="none" stroke="black" d="M447.36,-87.56C454.74,-87.22 462.34,-86.93 469.5,-86.75 495.49,-86.09 502.01,-85.94 528,-86.75 531.59,-86.86 535.29,-87.01 539.02,-87.18"/>
<polygon fill="black" stroke="black" points="538.54,-90.66 548.7,-87.67 538.89,-83.67 538.54,-90.66"/>
<text xml:space="preserve" text-anchor="middle" x="498.75" y="-90.7" font-family="Times,serif" font-size="14.00">ins(&#39;r&#39;)</text>
</g>
<!-- carp_car -->
<g id="node20" class="node">
<title>carp_car</title>
<polygon fill="none" stroke="black" points="647.5,-37 546,-37 546,-1 647.5,-1 647.5,-37"/>
<text xml:space="preserve" text-anchor="middle" x="596.75" y="-14.32" font-family="Times,serif" font-size="14.00">&quot;carp&quot;,&quot;car&quot;</text>
</g>
<!-- carp_ca&#45;&gt;carp_car -->
<g id="edge42" class="edge">
<title>carp_ca&#45;&gt;carp_car</title>
<path fill="none" stroke="black" d="M451.76,-18.24C476.64,-18.38 507.57,-18.54 534.38,-18.68"/>
<polygon fill="black" stroke="black" points="534.06,-22.18 544.08,-18.73 534.1,-15.18 534.06,-22.18"/>
<text xml:space="preserve" text-anchor="middle" x="498.75" y="-22.57" font-family="Times,serif" font-size="14.00">ins(&#39;r&#39;)</text>
</g>
<!-- _car&#45;&gt;c_car -->
<g id="edge7" class="edge">
<title>_car&#45;&gt;c_car</title>
<path fill="none" stroke="black" d="M596.75,-288.59C596.75,-281.28 596.75,-272.69 596.75,-264.56"/>
<polygon fill="black" stroke="black" points="600.25,-264.68 596.75,-254.68 593.25,-264.68 600.25,-264.68"/>
<text xml:space="preserve" text-anchor="middle" x="585.12" y="-266.32" font-family="Times,serif" font-size="14.00">del(&#39;c&#39;)</text>
</g>
<!-- _carv -->
<g id="node21" class="node">
<title>_carv</title>
<polygon fill="none" stroke="black" points="824.75,-325 746.5,-325 746.5,-289 824.75,-289 824.75,-325"/>
<text xml:space="preserve" text-anchor="middle" x="785.62" y="-302.32" font-family="Times,serif" font-size="14.00">&quot;&quot;,&quot;carv&quot;</text>
</g>
<!-- _car&#45;&gt;_carv -->
<g id="edge43" class="edge">
<title>_car&#45;&gt;_carv</title>
<path fill="none" stroke="black" d="M632.03,-307C660.74,-307 702.12,-307 734.55,-307"/>
<polygon fill="black" stroke="black" points="734.54,-310.5 744.54,-307 734.54,-303.5 734.54,-310.5"/>
<text xml:space="preserve" text-anchor="middle" x="689.12" y="-310.95" font-family="Times,serif" font-size="14.00">ins(&#39;v&#39;)</text>
</g>
<!-- c_car&#45;&gt;ca_car -->
<g id="edge13" class="edge">
<title>c_car&#45;&gt;ca_car</title>
<path fill="none" stroke="black" d="M596.75,-216.59C596.75,-209.28 596.75,-200.69 596.75,-192.56"/>
<polygon fill="black" stroke="black" points="600.25,-192.68 596.75,-182.68 593.25,-192.68 600.25,-192.68"/>
<text xml:space="preserve" text-anchor="middle" x="585.12" y="-194.32" font-family="Times,serif" font-size="14.00">del(&#39;a&#39;)</text>
</g>
<!-- c_carv -->
<g id="node22" class="node">
<title>c_carv</title>
<polygon fill="none" stroke="black" points="828.5,-253 742.75,-253 742.75,-217 828.5,-217 828.5,-253"/>
<text xml:space="preserve" text-anchor="middle" x="785.62" y="-230.32" font-family="Times,serif" font-size="14.00">&quot;c&quot;,&quot;carv&quot;</text>
</g>
<!-- c_car&#45;&gt;c_carv -->
<g id="edge44" class="edge">
<title>c_car&#45;&gt;c_carv</title>
<path fill="none" stroke="black" d="M635.57,-235C662.99,-235 700.47,-235 730.98,-235"/>
<polygon fill="black" stroke="black" points="730.79,-238.5 740.79,-235 730.79,-231.5 730.79,-238.5"/>
<text xml:space="preserve" text-anchor="middle" x="689.12" y="-238.95" font-family="Times,serif" font-size="14.00">ins(&#39;v&#39;)</text>
</g>
<!-- ca_car&#45;&gt;car_car -->
<g id="edge19" class="edge">
<title>ca_car&#45;&gt;car_car</title>
<path fill="none" stroke="black" d="M596.75,-144.59C596.75,-137.28 596.75,-128.69 596.75,-120.56"/>
<polygon fill="black" stroke="black" points="600.25,-120.68 596.75,-110.68 593.25,-120.68 600.25,-120.68"/>
<text xml:space="preserve" text-anchor="middle" x="585.12" y="-122.33" font-family="Times,serif" font-size="14.00">del(&#39;r&#39;)</text>
</g>
<!-- ca_carv -->
<g id="node23" class="node">
<title>ca_carv</title>
<polygon fill="none" stroke="black" points="832.62,-181 738.62,-181 738.62,-145 832.62,-145 832.62,-181"/>
<text xml:space="preserve" text-anchor="middle" x="785.62" y="-158.32" font-family="Times,serif" font-size="14.00">&quot;ca&quot;,&quot;carv&quot;</text>
</g>
<!-- ca_car&#45;&gt;ca_carv -->
<g id="edge45" class="edge">
<title>ca_car&#45;&gt;ca_carv</title>
<path fill="none" stroke="black" d="M639.69,-163C665.41,-163 698.71,-163 726.91,-163"/>
<polygon fill="black" stroke="black" points="726.72,-166.5 736.72,-163 726.72,-159.5 726.72,-166.5"/>
<text xml:space="preserve" text-anchor="middle" x="689.12" y="-166.95" font-family="Times,serif" font-size="14.00">ins(&#39;v&#39;)</text>
</g>
<!-- car_car&#45;&gt;carp_car -->
<g id="edge25" class="edge">
<title>car_car&#45;&gt;carp_car</title>
<path fill="none" stroke="blue" d="M596.75,-72.59C596.75,-65.28 596.75,-56.69 596.75,-48.56"/>
<polygon fill="blue" stroke="blue" points="600.25,-48.68 596.75,-38.68 593.25,-48.68 600.25,-48.68"/>
<text xml:space="preserve" text-anchor="middle" x="585.12" y="-50.33" font-family="Times,serif" font-size="14.00">del(&#39;p&#39;)</text>
</g>
<!-- car_carv -->
<g id="node24" class="node">
<title>car_carv</title>
<polygon fill="none" stroke="black" points="836,-109 735.25,-109 735.25,-73 836,-73 836,-109"/>
<text xml:space="preserve" text-anchor="middle" x="785.62" y="-86.33" font-family="Times,serif" font-size="14.00">&quot;car&quot;,&quot;carv&quot;</text>
</g>
<!-- car_car&#45;&gt;car_carv -->
<g id="edge46" class="edge">
<title>car_car&#45;&gt;car_carv</title>
<path fill="none" stroke="black" d="M643.46,-91C667.56,-91 697.45,-91 723.5,-91"/>
<polygon fill="black" stroke="black" points="723.28,-94.5 733.28,-91 723.28,-87.5 723.28,-94.5"/>
<text xml:space="preserve" text-anchor="middle" x="689.12" y="-94.95" font-family="Times,serif" font-size="14.00">ins(&#39;v&#39;)</text>
</g>
<!-- carp_carv -->
<g id="node25" class="node">
<title>carp_carv</title>
<polygon fill="none" stroke="black" points="840.5,-37 730.75,-37 730.75,-1 840.5,-1 840.5,-37"/>
<text xml:space="preserve" text-anchor="middle" x="785.62" y="-14.32" font-family="Times,serif" font-size="14.00">&quot;carp&quot;,&quot;carv&quot;</text>
</g>
<!-- carp_car&#45;&gt;carp_carv -->
<g id="edge47" class="edge">
<title>carp_car&#45;&gt;carp_carv</title>
<path fill="none" stroke="blue" d="M647.83,-19C669.76,-19 695.78,-19 719.21,-19"/>
<polygon fill="blue" stroke="blue" points="718.96,-22.5 728.96,-19 718.96,-15.5 718.96,-22.5"/>
<text xml:space="preserve" text-anchor="middle" x="689.12" y="-22.95" font-family="Times,serif" font-size="14.00">ins(&#39;v&#39;)</text>
</g>
<!-- _carv&#45;&gt;c_carv -->
<g id="edge8" class="edge">
<title>_carv&#45;&gt;c_carv</title>
<path fill="none" stroke="black" d="M785.62,-288.59C785.62,-281.28 785.62,-272.69 785.62,-264.56"/>
<polygon fill="black" stroke="black" points="789.13,-264.68 785.63,-254.68 782.13,-264.68 789.13,-264.68"/>
<text xml:space="preserve" text-anchor="middle" x="774" y="-266.32" font-family="Times,serif" font-size="14.00">del(&#39;c&#39;)</text>
</g>
<!-- _carve -->
<g id="node26" class="node">
<title>_carve</title>
<polygon fill="none" stroke="black" points="1026,-325 939.5,-325 939.5,-289 1026,-289 1026,-325"/>
<text xml:space="preserve" text-anchor="middle" x="982.75" y="-302.32" font-family="Times,serif" font-size="14.00">&quot;&quot;,&quot;carve&quot;</text>
</g>
<!-- _carv&#45;&gt;_carve -->
<g id="edge48" class="edge">
<title>_carv&#45;&gt;_carve</title>
<path fill="none" stroke="black" d="M825.18,-307C854.58,-307 895.45,-307 928.06,-307"/>
<polygon fill="black" stroke="black" points="927.7,-310.5 937.7,-307 927.7,-303.5 927.7,-310.5"/>
<text xml:space="preserve" text-anchor="middle" x="882.12" y="-310.95" font-family="Times,serif" font-size="14.00">ins(&#39;e&#39;)</text>
</g>
<!-- c_carv&#45;&gt;ca_carv -->
<g id="edge14" class="edge">
<title>c_carv&#45;&gt;ca_carv</title>
<path fill="none" stroke="black" d="M785.62,-216.59C785.62,-209.28 785.62,-200.69 785.62,-192.56"/>
<polygon fill="black" stroke="black" points="789.13,-192.68 785.63,-182.68 782.13,-192.68 789.13,-192.68"/>
<text xml:space="preserve" text-anchor="middle" x="774" y="-194.32" font-family="Times,serif" font-size="14.00">del(&#39;a&#39;)</text>
</g>
<!-- c_carve -->
<g id="node27" class="node">
<title>c_carve</title>
<polygon fill="none" stroke="black" points="1029.75,-253 935.75,-253 935.75,-217 1029.75,-217 1029.75,-253"/>
<text xml:space="preserve" text-anchor="middle" x="982.75" y="-230.32" font-family="Times,serif" font-size="14.00">&quot;c&quot;,&quot;carve&quot;</text>
</g>
<!-- c_carv&#45;&gt;c_carve -->
<g id="edge49" class="edge">
<title>c_carv&#45;&gt;c_carve</title>
<path fill="none" stroke="black" d="M828.96,-235C856.79,-235 893.56,-235 924.05,-235"/>
<polygon fill="black" stroke="black" points="923.89,-238.5 933.89,-235 923.89,-231.5 923.89,-238.5"/>
<text xml:space="preserve" text-anchor="middle" x="882.12" y="-238.95" font-family="Times,serif" font-size="14.00">ins(&#39;e&#39;)</text>
</g>
<!-- ca_carv&#45;&gt;car_carv -->
<g id="edge20" class="edge">
<title>ca_carv&#45;&gt;car_carv</title>
<path fill="none" stroke="black" d="M785.62,-144.59C785.62,-137.28 785.62,-128.69 785.62,-120.56"/>
<polygon fill="black" stroke="black" points="789.13,-120.68 785.63,-110.68 782.13,-120.68 789.13,-120.68"/>
<text xml:space="preserve" text-anchor="middle" x="774" y="-122.33" font-family="Times,serif" font-size="14.00">del(&#39;r&#39;)</text>
</g>
<!-- ca_carve -->
<g id="node28" class="node">
<title>ca_carve</title>
<polygon fill="none" stroke="black" points="1033.88,-181 931.62,-181 931.62,-145 1033.88,-145 1033.88,-181"/>
<text xml:space="preserve" text-anchor="middle" x="982.75" y="-158.32" font-family="Times,serif" font-size="14.00">&quot;ca&quot;,&quot;carve&quot;</text>
</g>
<!-- ca_carv&#45;&gt;ca_carve -->
<g id="edge50" class="edge">
<title>ca_carv&#45;&gt;ca_carve</title>
<path fill="none" stroke="black" d="M832.87,-163C858.92,-163 891.79,-163 920.02,-163"/>
<polygon fill="black" stroke="black" points="919.88,-166.5 929.88,-163 919.88,-159.5 919.88,-166.5"/>
<text xml:space="preserve" text-anchor="middle" x="882.12" y="-166.95" font-family="Times,serif" font-size="14.00">ins(&#39;e&#39;)</text>
</g>
<!-- car_carv&#45;&gt;carp_carv -->
<g id="edge26" class="edge">
<title>car_carv&#45;&gt;carp_carv</title>
<path fill="none" stroke="black" d="M785.62,-72.59C785.62,-65.28 785.62,-56.69 785.62,-48.56"/>
<polygon fill="black" stroke="black" points="789.13,-48.68 785.63,-38.68 782.13,-48.68 789.13,-48.68"/>
<text xml:space="preserve" text-anchor="middle" x="774" y="-50.33" font-family="Times,serif" font-size="14.00">del(&#39;p&#39;)</text>
</g>
<!-- car_carve -->
<g id="node29" class="node">
<title>car_carve</title>
<polygon fill="none" stroke="black" points="1037.25,-109 928.25,-109 928.25,-73 1037.25,-73 1037.25,-109"/>
<text xml:space="preserve" text-anchor="middle" x="982.75" y="-86.33" font-family="Times,serif" font-size="14.00">&quot;car&quot;,&quot;carve&quot;</text>
</g>
<!-- car_carv&#45;&gt;car_carve -->
<g id="edge51" class="edge">
<title>car_carv&#45;&gt;car_carve</title>
<path fill="none" stroke="black" d="M836.37,-91C860.76,-91 890.45,-91 916.63,-91"/>
<polygon fill="black" stroke="black" points="916.47,-94.5 926.47,-91 916.47,-87.5 916.47,-94.5"/>
<text xml:space="preserve" text-anchor="middle" x="882.12" y="-94.95" font-family="Times,serif" font-size="14.00">ins(&#39;e&#39;)</text>
</g>
<!-- carp_carve -->
<g id="node30" class="node">
<title>carp_carve</title>
<polygon fill="none" stroke="black" points="1041.75,-37 923.75,-37 923.75,-1 1041.75,-1 1041.75,-37"/>
<text xml:space="preserve" text-anchor="middle" x="982.75" y="-14.32" font-family="Times,serif" font-size="14.00">&quot;carp&quot;,&quot;carve&quot;</text>
</g>
<!-- carp_carv&#45;&gt;carp_carve -->
<g id="edge52" class="edge">
<title>carp_carv&#45;&gt;carp_carve</title>
<path fill="none" stroke="blue" d="M840.98,-19C863.07,-19 888.87,-19 912.31,-19"/>
<polygon fill="blue" stroke="blue" points="912.08,-22.5 922.08,-19 912.08,-15.5 912.08,-22.5"/>
<text xml:space="preserve" text-anchor="middle" x="882.12" y="-22.95" font-family="Times,serif" font-size="14.00">ins(&#39;e&#39;)</text>
</g>
<!-- _carve&#45;&gt;c_carve -->
<g id="edge9" class="edge">
<title>_carve&#45;&gt;c_carve</title>
<path fill="none" stroke="black" d="M982.75,-288.59C982.75,-281.28 982.75,-272.69 982.75,-264.56"/>
<polygon fill="black" stroke="black" points="986.25,-264.68 982.75,-254.68 979.25,-264.68 986.25,-264.68"/>
<text xml:space="preserve" text-anchor="middle" x="971.12" y="-266.32" font-family="Times,serif" font-size="14.00">del(&#39;c&#39;)</text>
</g>
<!-- c_carve&#45;&gt;ca_carve -->
<g id="edge15" class="edge">
<title>c_carve&#45;&gt;ca_carve</title>
<path fill="none" stroke="black" d="M982.75,-216.59C982.75,-209.28 982.75,-200.69 982.75,-192.56"/>
<polygon fill="black" stroke="black" points="986.25,-192.68 982.75,-182.68 979.25,-192.68 986.25,-192.68"/>
<text xml:space="preserve" text-anchor="middle" x="971.12" y="-194.32" font-family="Times,serif" font-size="14.00">del(&#39;a&#39;)</text>
</g>
<!-- ca_carve&#45;&gt;car_carve -->
<g id="edge21" class="edge">
<title>ca_carve&#45;&gt;car_carve</title>
<path fill="none" stroke="black" d="M982.75,-144.59C982.75,-137.28 982.75,-128.69 982.75,-120.56"/>
<polygon fill="black" stroke="black" points="986.25,-120.68 982.75,-110.68 979.25,-120.68 986.25,-120.68"/>
<text xml:space="preserve" text-anchor="middle" x="971.12" y="-122.33" font-family="Times,serif" font-size="14.00">del(&#39;r&#39;)</text>
</g>
<!-- car_carve&#45;&gt;carp_carve -->
<g id="edge27" class="edge">
<title>car_carve&#45;&gt;carp_carve</title>
<path fill="none" stroke="black" d="M982.75,-72.59C982.75,-65.28 982.75,-56.69 982.75,-48.56"/>
<polygon fill="black" stroke="black" points="986.25,-48.68 982.75,-38.68 979.25,-48.68 986.25,-48.68"/>
<text xml:space="preserve" text-anchor="middle" x="971.12" y="-50.33" font-family="Times,serif" font-size="14.00">del(&#39;p&#39;)</text>
</g>
</g>
</svg>
