<?xml version="1.0" encoding="UTF-8" standalone="no"?>
<!DOCTYPE svg PUBLIC "-//W3C//DTD SVG 1.1//EN"
 "http://www.w3.org/Graphics/SVG/1.1/DTD/svg11.dtd">
<!-- Generated by graphviz version 7.0.1 (20221109.1506)
 -->
<!-- Title: G Pages: 1 -->
<svg width="427pt" height="337pt"
 viewBox="0.00 0.00 427.00 337.00" xmlns="http://www.w3.org/2000/svg" xmlns:xlink="http://www.w3.org/1999/xlink">
<g id="graph0" class="graph" transform="scale(1 1) rotate(0) translate(4 333)">
<title>G</title>
<polygon fill="white" stroke="none" points="-4,4 -4,-333 423,-333 423,4 -4,4"/>
<!-- a -->
<g id="node1" class="node">
<title>a</title>
<polygon fill="none" stroke="black" points="71,-292.5 71,-328.5 125,-328.5 125,-292.5 71,-292.5"/>
<text text-anchor="middle" x="98" y="-306.8" font-family="Times,serif" font-size="14.00">a</text>
</g>
<!-- codea -->
<g id="node3" class="node">
<title>codea</title>
<polygon fill="none" stroke="black" points="0,-219.5 0,-255.5 54,-255.5 54,-219.5 0,-219.5"/>
<text text-anchor="middle" x="27" y="-233.8" font-family="Times,serif" font-size="14.00">code</text>
</g>
<!-- a&#45;&gt;codea -->
<g id="edge1" class="edge">
<title>a&#45;&gt;codea</title>
<path fill="none" stroke="black" d="M81.17,-292.67C72.33,-283.83 61.33,-272.83 51.55,-263.05"/>
<polygon fill="black" stroke="black" points="54.32,-260.87 44.78,-256.28 49.37,-265.82 54.32,-260.87"/>
</g>
<!-- closurea -->
<g id="node4" class="node">
<title>closurea</title>
<polygon fill="none" stroke="black" points="72,-219.5 72,-255.5 268,-255.5 268,-219.5 72,-219.5"/>
<text text-anchor="middle" x="131.5" y="-233.8" font-family="Times,serif" font-size="14.00">local variables</text>
<polyline fill="none" stroke="black" points="191,-219.5 191,-255.5"/>
<text text-anchor="middle" x="206" y="-233.8" font-family="Times,serif" font-size="14.00">...</text>
<polyline fill="none" stroke="black" points="221,-219.5 221,-255.5"/>
<text text-anchor="middle" x="244.5" y="-233.8" font-family="Times,serif" font-size="14.00">cont</text>
</g>
<!-- a&#45;&gt;closurea -->
<g id="edge2" class="edge">
<title>a&#45;&gt;closurea</title>
<path fill="none" stroke="black" d="M115.06,-292.67C124.03,-283.83 135.19,-272.83 145.1,-263.05"/>
<polygon fill="black" stroke="black" points="147.32,-265.78 151.98,-256.27 142.4,-260.8 147.32,-265.78"/>
</g>
<!-- b -->
<g id="node2" class="node">
<title>b</title>
<polygon fill="none" stroke="black" points="218,-146.5 218,-182.5 272,-182.5 272,-146.5 218,-146.5"/>
<text text-anchor="middle" x="245" y="-160.8" font-family="Times,serif" font-size="14.00">b</text>
</g>
<!-- codeb -->
<g id="node5" class="node">
<title>codeb</title>
<polygon fill="none" stroke="black" points="147,-73.5 147,-109.5 201,-109.5 201,-73.5 147,-73.5"/>
<text text-anchor="middle" x="174" y="-87.8" font-family="Times,serif" font-size="14.00">code</text>
</g>
<!-- b&#45;&gt;codeb -->
<g id="edge4" class="edge">
<title>b&#45;&gt;codeb</title>
<path fill="none" stroke="black" d="M228.17,-146.67C219.33,-137.83 208.33,-126.83 198.55,-117.05"/>
<polygon fill="black" stroke="black" points="201.32,-114.87 191.78,-110.28 196.37,-119.82 201.32,-114.87"/>
</g>
<!-- closureb -->
<g id="node6" class="node">
<title>closureb</title>
<polygon fill="none" stroke="black" points="219,-73.5 219,-109.5 415,-109.5 415,-73.5 219,-73.5"/>
<text text-anchor="middle" x="278.5" y="-87.8" font-family="Times,serif" font-size="14.00">local variables</text>
<polyline fill="none" stroke="black" points="338,-73.5 338,-109.5"/>
<text text-anchor="middle" x="353" y="-87.8" font-family="Times,serif" font-size="14.00">...</text>
<polyline fill="none" stroke="black" points="368,-73.5 368,-109.5"/>
<text text-anchor="middle" x="391.5" y="-87.8" font-family="Times,serif" font-size="14.00">cont</text>
</g>
<!-- b&#45;&gt;closureb -->
<g id="edge5" class="edge">
<title>b&#45;&gt;closureb</title>
<path fill="none" stroke="black" d="M262.06,-146.67C271.03,-137.83 282.19,-126.83 292.1,-117.05"/>
<polygon fill="black" stroke="black" points="294.32,-119.78 298.98,-110.27 289.4,-114.8 294.32,-119.78"/>
</g>
<!-- closurea&#45;&gt;b -->
<g id="edge3" class="edge">
<title>closurea:0&#45;&gt;b</title>
<path fill="none" stroke="black" d="M245,-219C245,-210.76 245,-201.81 245,-193.63"/>
<polygon fill="black" stroke="black" points="248.5,-193.88 245,-183.88 241.5,-193.88 248.5,-193.88"/>
</g>
<!-- ... -->
<g id="node7" class="node">
<title>...</title>
<polygon fill="none" stroke="black" points="365,-0.5 365,-36.5 419,-36.5 419,-0.5 365,-0.5"/>
<text text-anchor="middle" x="392" y="-14.8" font-family="Times,serif" font-size="14.00">...</text>
</g>
<!-- closureb&#45;&gt;... -->
<g id="edge6" class="edge">
<title>closureb:0&#45;&gt;...</title>
<path fill="none" stroke="black" d="M392,-73C392,-64.76 392,-55.81 392,-47.63"/>
<polygon fill="black" stroke="black" points="395.5,-47.88 392,-37.88 388.5,-47.88 395.5,-47.88"/>
</g>
</g>
</svg>
