<?xml version="1.0" encoding="UTF-8" standalone="no"?>
<!DOCTYPE svg PUBLIC "-//W3C//DTD SVG 1.1//EN"
 "http://www.w3.org/Graphics/SVG/1.1/DTD/svg11.dtd">
<!-- Generated by graphviz version 7.0.1 (20221109.1506)
 -->
<!-- Title: G Pages: 1 -->
<svg width="288pt" height="133pt"
 viewBox="0.00 0.00 288.00 133.00" xmlns="http://www.w3.org/2000/svg" xmlns:xlink="http://www.w3.org/1999/xlink">
<g id="graph0" class="graph" transform="scale(1 1) rotate(0) translate(4 129)">
<title>G</title>
<polygon fill="white" stroke="none" points="-4,4 -4,-129 284,-129 284,4 -4,4"/>
<!-- code -->
<g id="node1" class="node">
<title>code</title>
<polygon fill="none" stroke="black" points="0,-0.5 0,-36.5 176,-36.5 176,-0.5 0,-0.5"/>
<text text-anchor="middle" x="88" y="-14.8" font-family="Times,serif" font-size="14.00">const x = quadratic(...</text>
</g>
<!-- closure -->
<g id="node2" class="node">
<title>closure</title>
<polygon fill="none" stroke="black" points="194,-0.5 194,-36.5 248,-36.5 248,-0.5 194,-0.5"/>
<text text-anchor="middle" x="207" y="-14.8" font-family="Times,serif" font-size="14.00">a</text>
<polyline fill="none" stroke="black" points="220,-0.5 220,-36.5"/>
<text text-anchor="middle" x="234" y="-14.8" font-family="Times,serif" font-size="14.00">b</text>
</g>
<!-- quad12 -->
<g id="node3" class="node">
<title>quad12</title>
<polygon fill="none" stroke="black" points="119,-88.5 119,-124.5 189,-124.5 189,-88.5 119,-88.5"/>
<text text-anchor="middle" x="154" y="-102.8" font-family="Times,serif" font-size="14.00">quad12</text>
</g>
<!-- quad12&#45;&gt;code -->
<g id="edge1" class="edge">
<title>quad12&#45;&gt;code</title>
<path fill="none" stroke="black" d="M140.96,-88.51C131.56,-76.26 118.7,-59.5 108,-45.56"/>
<polygon fill="black" stroke="black" points="110.8,-43.46 101.93,-37.66 105.25,-47.72 110.8,-43.46"/>
<text text-anchor="middle" x="155.5" y="-58.8" font-family="Times,serif" font-size="14.00">the code</text>
</g>
<!-- quad12&#45;&gt;closure -->
<g id="edge2" class="edge">
<title>quad12&#45;&gt;closure</title>
<path fill="none" stroke="black" d="M172.84,-88.6C178.65,-82.96 184.87,-76.46 190,-70 195.94,-62.52 201.65,-53.83 206.51,-45.79"/>
<polygon fill="black" stroke="black" points="209.39,-47.79 211.41,-37.39 203.35,-44.26 209.39,-47.79"/>
<text text-anchor="middle" x="240" y="-58.8" font-family="Times,serif" font-size="14.00">the closure</text>
</g>
</g>
</svg>
