<?xml version="1.0" encoding="UTF-8" standalone="no"?>
<!DOCTYPE svg PUBLIC "-//W3C//DTD SVG 1.1//EN"
 "http://www.w3.org/Graphics/SVG/1.1/DTD/svg11.dtd">
<!-- Generated by graphviz version 14.1.1 (20251213.1925)
 -->
<!-- Title: G Pages: 1 -->
<svg width="359pt" height="102pt"
 viewBox="0.00 0.00 359.00 102.00" xmlns="http://www.w3.org/2000/svg" xmlns:xlink="http://www.w3.org/1999/xlink">
<g id="graph0" class="graph" transform="scale(1 1) rotate(0) translate(4 98.47)">
<title>G</title>
<polygon fill="white" stroke="none" points="-4,4 -4,-98.47 355,-98.47 355,4 -4,4"/>
<!-- 1 -->
<g id="node1" class="node">
<title>1</title>
<ellipse fill="none" stroke="black" cx="27" cy="-45" rx="27" ry="18"/>
<text xml:space="preserve" text-anchor="middle" x="27" y="-40.33" font-family="Times,serif" font-size="14.00">1</text>
</g>
<!-- 2 -->
<g id="node2" class="node">
<title>2</title>
<ellipse fill="none" stroke="black" cx="126" cy="-72" rx="27" ry="18"/>
<text xml:space="preserve" text-anchor="middle" x="126" y="-67.33" font-family="Times,serif" font-size="14.00">2</text>
</g>
<!-- 1&#45;&gt;2 -->
<g id="edge1" class="edge">
<title>1&#45;&gt;2</title>
<path fill="none" stroke="black" d="M52.48,-51.81C63.74,-54.95 77.3,-58.72 89.64,-62.16"/>
<polygon fill="black" stroke="black" points="88.5,-65.47 99.07,-64.78 90.38,-58.73 88.5,-65.47"/>
<text xml:space="preserve" text-anchor="middle" x="76.5" y="-63.26" font-family="Times,serif" font-size="14.00">1</text>
</g>
<!-- 5 -->
<g id="node5" class="node">
<title>5</title>
<ellipse fill="none" stroke="black" cx="126" cy="-18" rx="27" ry="18"/>
<text xml:space="preserve" text-anchor="middle" x="126" y="-13.32" font-family="Times,serif" font-size="14.00">5</text>
</g>
<!-- 1&#45;&gt;5 -->
<g id="edge4" class="edge">
<title>1&#45;&gt;5</title>
<path fill="none" stroke="black" d="M52.48,-38.19C63.74,-35.05 77.3,-31.28 89.64,-27.84"/>
<polygon fill="black" stroke="black" points="90.38,-31.27 99.07,-25.22 88.5,-24.53 90.38,-31.27"/>
<text xml:space="preserve" text-anchor="middle" x="76.5" y="-36.26" font-family="Times,serif" font-size="14.00">1</text>
</g>
<!-- 3 -->
<g id="node3" class="node">
<title>3</title>
<ellipse fill="none" stroke="black" cx="225" cy="-36" rx="27" ry="18"/>
<text xml:space="preserve" text-anchor="middle" x="225" y="-31.32" font-family="Times,serif" font-size="14.00">3</text>
</g>
<!-- 2&#45;&gt;3 -->
<g id="edge2" class="edge">
<title>2&#45;&gt;3</title>
<path fill="none" stroke="black" d="M149.99,-63.47C161.98,-59.02 176.88,-53.49 190.16,-48.56"/>
<polygon fill="black" stroke="black" points="191.26,-51.88 199.42,-45.12 188.83,-45.32 191.26,-51.88"/>
<text xml:space="preserve" text-anchor="middle" x="175.5" y="-59.03" font-family="Times,serif" font-size="14.00">1</text>
</g>
<!-- 4 -->
<g id="node4" class="node">
<title>4</title>
<ellipse fill="none" stroke="black" cx="324" cy="-63" rx="27" ry="18"/>
<text xml:space="preserve" text-anchor="middle" x="324" y="-58.33" font-family="Times,serif" font-size="14.00">4</text>
</g>
<!-- 2&#45;&gt;4 -->
<g id="edge6" class="edge">
<title>2&#45;&gt;4</title>
<path fill="none" stroke="black" d="M153.03,-74.76C158.93,-75.28 165.18,-75.74 171,-76 218.98,-78.18 231.32,-77.8 279,-72 281.52,-71.69 284.1,-71.32 286.7,-70.9"/>
<polygon fill="black" stroke="black" points="287.29,-74.35 296.5,-69.12 286.03,-67.47 287.29,-74.35"/>
<text xml:space="preserve" text-anchor="middle" x="225" y="-81.17" font-family="Times,serif" font-size="14.00">1</text>
</g>
<!-- 3&#45;&gt;4 -->
<g id="edge3" class="edge">
<title>3&#45;&gt;4</title>
<path fill="none" stroke="black" d="M250.48,-42.81C261.74,-45.95 275.3,-49.72 287.64,-53.16"/>
<polygon fill="black" stroke="black" points="286.5,-56.47 297.07,-55.78 288.38,-49.73 286.5,-56.47"/>
<text xml:space="preserve" text-anchor="middle" x="274.5" y="-54.26" font-family="Times,serif" font-size="14.00">1</text>
</g>
<!-- 5&#45;&gt;3 -->
<g id="edge5" class="edge">
<title>5&#45;&gt;3</title>
<path fill="none" stroke="black" d="M153.34,-16.52C161.91,-16.53 171.42,-17.07 180,-18.75 183.9,-19.52 187.9,-20.61 191.83,-21.88"/>
<polygon fill="black" stroke="black" points="190.52,-25.13 201.11,-25.28 192.93,-18.56 190.52,-25.13"/>
<text xml:space="preserve" text-anchor="middle" x="175.5" y="-22.7" font-family="Times,serif" font-size="14.00">1</text>
</g>
</g>
</svg>
