<?xml version="1.0" encoding="UTF-8" standalone="no"?>
<!DOCTYPE svg PUBLIC "-//W3C//DTD SVG 1.1//EN"
 "http://www.w3.org/Graphics/SVG/1.1/DTD/svg11.dtd">
<!-- Generated by graphviz version 7.0.1 (20221109.1506)
 -->
<!-- Title: G Pages: 1 -->
<svg width="362pt" height="98pt"
 viewBox="0.00 0.00 362.00 98.00" xmlns="http://www.w3.org/2000/svg" xmlns:xlink="http://www.w3.org/1999/xlink">
<g id="graph0" class="graph" transform="scale(1 1) rotate(0) translate(4 94)">
<title>G</title>
<polygon fill="white" stroke="none" points="-4,4 -4,-94 358,-94 358,4 -4,4"/>
<!-- 1 -->
<g id="node1" class="node">
<title>1</title>
<ellipse fill="none" stroke="black" cx="27" cy="-45" rx="27" ry="18"/>
<text text-anchor="middle" x="27" y="-41.3" font-family="Times,serif" font-size="14.00">1</text>
</g>
<!-- 2 -->
<g id="node2" class="node">
<title>2</title>
<ellipse fill="none" stroke="black" cx="127" cy="-72" rx="27" ry="18"/>
<text text-anchor="middle" x="127" y="-68.3" font-family="Times,serif" font-size="14.00">2</text>
</g>
<!-- 1&#45;&gt;2 -->
<g id="edge1" class="edge">
<title>1&#45;&gt;2</title>
<path fill="none" stroke="black" d="M52.48,-51.74C63.94,-54.9 77.81,-58.72 90.4,-62.19"/>
<polygon fill="black" stroke="black" points="89.47,-65.56 100.04,-64.85 91.33,-58.82 89.47,-65.56"/>
<text text-anchor="middle" x="77" y="-62.8" font-family="Times,serif" font-size="14.00">1</text>
</g>
<!-- 5 -->
<g id="node5" class="node">
<title>5</title>
<ellipse fill="none" stroke="black" cx="127" cy="-18" rx="27" ry="18"/>
<text text-anchor="middle" x="127" y="-14.3" font-family="Times,serif" font-size="14.00">5</text>
</g>
<!-- 1&#45;&gt;5 -->
<g id="edge4" class="edge">
<title>1&#45;&gt;5</title>
<path fill="none" stroke="black" d="M52.48,-38.26C63.94,-35.1 77.81,-31.28 90.4,-27.81"/>
<polygon fill="black" stroke="black" points="91.33,-31.18 100.04,-25.15 89.47,-24.44 91.33,-31.18"/>
<text text-anchor="middle" x="77" y="-35.8" font-family="Times,serif" font-size="14.00">1</text>
</g>
<!-- 3 -->
<g id="node3" class="node">
<title>3</title>
<ellipse fill="none" stroke="black" cx="227" cy="-32" rx="27" ry="18"/>
<text text-anchor="middle" x="227" y="-28.3" font-family="Times,serif" font-size="14.00">3</text>
</g>
<!-- 2&#45;&gt;3 -->
<g id="edge2" class="edge">
<title>2&#45;&gt;3</title>
<path fill="none" stroke="black" d="M150.73,-62.72C163.22,-57.62 178.95,-51.2 192.79,-45.55"/>
<polygon fill="black" stroke="black" points="194.06,-48.82 201.99,-41.8 191.41,-42.34 194.06,-48.82"/>
<text text-anchor="middle" x="177" y="-56.8" font-family="Times,serif" font-size="14.00">1</text>
</g>
<!-- 4 -->
<g id="node4" class="node">
<title>4</title>
<ellipse fill="none" stroke="black" cx="327" cy="-59" rx="27" ry="18"/>
<text text-anchor="middle" x="327" y="-55.3" font-family="Times,serif" font-size="14.00">4</text>
</g>
<!-- 2&#45;&gt;4 -->
<g id="edge6" class="edge">
<title>2&#45;&gt;4</title>
<path fill="none" stroke="black" d="M154.37,-72.37C163.16,-72.39 173.01,-72.31 182,-72 226.53,-70.44 237.68,-69.57 282,-65 284.34,-64.76 286.74,-64.49 289.16,-64.2"/>
<polygon fill="black" stroke="black" points="289.46,-67.69 298.94,-62.96 288.58,-60.75 289.46,-67.69"/>
<text text-anchor="middle" x="227" y="-74.8" font-family="Times,serif" font-size="14.00">1</text>
</g>
<!-- 3&#45;&gt;4 -->
<g id="edge3" class="edge">
<title>3&#45;&gt;4</title>
<path fill="none" stroke="black" d="M252.48,-38.74C263.94,-41.9 277.81,-45.72 290.4,-49.19"/>
<polygon fill="black" stroke="black" points="289.47,-52.56 300.04,-51.85 291.33,-45.82 289.47,-52.56"/>
<text text-anchor="middle" x="277" y="-49.8" font-family="Times,serif" font-size="14.00">1</text>
</g>
<!-- 5&#45;&gt;3 -->
<g id="edge5" class="edge">
<title>5&#45;&gt;3</title>
<path fill="none" stroke="black" d="M154.21,-17.07C163.08,-17.14 173.01,-17.61 182,-19 185.17,-19.49 188.44,-20.15 191.69,-20.91"/>
<polygon fill="black" stroke="black" points="190.49,-24.21 201.05,-23.41 192.29,-17.45 190.49,-24.21"/>
<text text-anchor="middle" x="177" y="-22.8" font-family="Times,serif" font-size="14.00">1</text>
</g>
</g>
</svg>
